<svg width="49" height="47" viewBox="0 0 49 47" fill="none" xmlns="http://www.w3.org/2000/svg">
<mask id="mask0_2516_946" style="mask-type:luminance" maskUnits="userSpaceOnUse" x="0" y="0" width="49" height="47">
<path d="M48.3265 15.7339L14.3223 0L0.00010629 30.9532L34.0044 46.6871L48.3265 15.7339Z" fill="white"/>
</mask>
<g mask="url(#mask0_2516_946)">
<path fill-rule="evenodd" clip-rule="evenodd" d="M21.6303 6.51294L32.965 11.7576L31.7715 14.337L28.9378 13.0258L27.7443 15.6053L24.9106 14.2941L26.1041 11.7147L20.4368 9.09237L21.6303 6.51294ZM16.4096 10.3606L17.6031 7.78121L20.4368 9.09237L19.2432 11.6718L16.4096 10.3606ZM10.442 23.2578L7.6083 21.9466L13.5759 9.04949L16.4096 10.3606L10.442 23.2578ZM12.0822 27.1484L9.24847 25.8372L10.442 23.2578L13.2757 24.569L12.0822 27.1484ZM13.7223 31.039L10.8886 29.7278L12.0822 27.1484L14.9158 28.4596L13.7223 31.039ZM27.8908 37.5948L26.6973 40.1742L12.5288 33.6184L13.7223 31.039L27.8908 37.5948ZM31.918 36.3265L30.7245 38.9059L27.8908 37.5948L29.0843 35.0153L31.918 36.3265ZM31.4713 29.8565L34.305 31.1676L31.918 36.3265L34.7517 37.6377L39.5257 27.3199L36.692 26.0088L35.4985 28.5882L32.6648 27.277L31.4713 29.8565ZM22.9702 25.923L21.7767 28.5024L30.2778 32.4359L31.4713 29.8565L22.9702 25.923ZM21.3301 22.0324L24.1638 23.3436L22.9702 25.923L20.1366 24.6118L21.3301 22.0324ZM21.3301 22.0324L24.9106 14.2941L22.0769 12.983L18.4964 20.7213L21.3301 22.0324Z" fill="#94A3B8"/>
</g>
</svg>
